<svg width="400" height="200" viewBox="0 0 400 200" xmlns="http://www.w3.org/2000/svg">
  <!-- 배경 -->
  <rect width="400" height="200" fill="transparent"/>
  
  <!-- 전기차 실루엣 -->
  <g transform="translate(50, 100) scale(0.8)">
    <!-- 차체 -->
    <path d="M30,80 C30,65 40,55 60,55 L240,55 C280,55 300,65 320,80 L330,90 C340,100 340,110 330,120 L320,130 C300,145 60,145 40,130 L30,120 C20,110 20,100 30,90 Z" fill="#ffffff" stroke="#ffffff" stroke-width="2"/>
    
    <!-- 차체 윤곡과 새도우 -->
    <path d="M30,80 C30,65 40,55 60,55 L240,55 C280,55 300,65 320,80 L330,90 C340,100 340,110 330,120 L320,130 C300,145 60,145 40,130 L30,120 C20,110 20,100 30,90 Z" fill="none" stroke="#2a9d8f" stroke-width="3"/>
    
    <!-- 차량 유리 -->
    <path d="M80,55 L100,35 L260,35 L280,55" fill="#a8dadc" stroke="#2a9d8f" stroke-width="2"/>
    
    <!-- 전방 조명 -->
    <circle cx="60" cy="90" r="15" fill="#f1faee" stroke="#2a9d8f" stroke-width="2"/>
    <circle cx="60" cy="90" r="10" fill="#ffff99" stroke="#2a9d8f" stroke-width="1"/>
    
    <!-- 후방 조명 -->
    <rect x="300" y="80" width="20" height="10" rx="5" fill="#e63946" stroke="#2a9d8f" stroke-width="1"/>
    
    <!-- 바퀴 -->
    <circle cx="80" cy="130" r="25" fill="#1d3557" stroke="#457b9d" stroke-width="3"/>
    <circle cx="80" cy="130" r="15" fill="#a8dadc" stroke="#457b9d" stroke-width="2"/>
    <circle cx="260" cy="130" r="25" fill="#1d3557" stroke="#457b9d" stroke-width="3"/>
    <circle cx="260" cy="130" r="15" fill="#a8dadc" stroke="#457b9d" stroke-width="2"/>
    
    <!-- 차량 디테일 -->
    <rect x="120" y="70" width="100" height="10" rx="5" fill="#a8dadc" stroke="#2a9d8f" stroke-width="1"/>
    <rect x="110" y="90" width="120" height="5" rx="2" fill="#a8dadc" stroke="#2a9d8f" stroke-width="1"/>
    
    <!-- 충전 표시 -->
    <rect x="290" y="90" width="20" height="15" rx="3" fill="#a8dadc" stroke="#2a9d8f" stroke-width="1"/>
  </g>
  
  <!-- 배터리 아이콘 -->
  <g transform="translate(300, 40) scale(0.7)">
    <rect x="0" y="0" width="60" height="30" rx="3" fill="#2a9d8f" stroke="#1d3557" stroke-width="2"/>
    <rect x="60" y="10" width="10" height="10" rx="2" fill="#2a9d8f" stroke="#1d3557" stroke-width="2"/>
    
    <!-- 충전 표시 -->
    <rect x="10" y="10" width="10" height="10" fill="#f1faee"/>
    <rect x="25" y="10" width="10" height="10" fill="#f1faee"/>
    <rect x="40" y="10" width="10" height="10" fill="#f1faee"/>
  </g>
  
  <!-- 전기 배선 -->
  <g transform="translate(230, 50) scale(0.6)">
    <path d="M0,0 L20,50 L0,50 L20,100" stroke="#ffff99" stroke-width="8" fill="none" stroke-linecap="round" stroke-linejoin="round"/>
  </g>
  
  <!-- 경로 -->
  <line x1="50" y1="155" x2="350" y2="155" stroke="#1d3557" stroke-width="5" stroke-dasharray="10,5"/>
</svg>